<svg width="711" height="187" viewBox="0 0 711 187" fill="none" xmlns="http://www.w3.org/2000/svg">
<path d="M22 5H162C171.389 5 179 12.6112 179 22V165C179 174.389 171.389 182 162 182H22C12.6112 182 5 174.389 5 165V22C5 12.6112 12.6112 5 22 5Z" stroke="#FF2800" stroke-width="10"/>
<path d="M35.8153 137H18.9403L49.6648 49.7273H69.1818L99.9489 137H83.0739L59.7642 67.625H59.0824L35.8153 137ZM36.3693 102.781H82.392V115.48H36.3693V102.781ZM111.444 137V49.7273H127.254V123.747H165.691V137H111.444Z" fill="#FF2800"/>
<path d="M224.815 136H207.94L238.665 48.7273H258.182L288.949 136H272.074L248.764 66.625H248.082L224.815 136ZM225.369 101.781H271.392V114.48H225.369V101.781ZM322.721 137.278C316.187 137.278 310.576 135.844 305.889 132.974C301.23 130.105 297.636 126.142 295.107 121.085C292.607 116 291.357 110.148 291.357 103.528C291.357 96.8807 292.636 91.0142 295.193 85.929C297.749 80.8153 301.357 76.8381 306.016 73.9972C310.704 71.1278 316.244 69.6932 322.636 69.6932C327.948 69.6932 332.65 70.6733 336.741 72.6335C340.86 74.5653 344.141 77.3068 346.585 80.858C349.028 84.3807 350.42 88.5 350.761 93.2159H336.016C335.42 90.0625 333.999 87.4347 331.755 85.3324C329.539 83.2017 326.57 82.1364 322.849 82.1364C319.695 82.1364 316.926 82.9886 314.539 84.6932C312.153 86.3693 310.292 88.7841 308.957 91.9375C307.65 95.0909 306.997 98.8693 306.997 103.273C306.997 107.733 307.65 111.568 308.957 114.778C310.264 117.96 312.096 120.418 314.454 122.151C316.84 123.855 319.639 124.707 322.849 124.707C325.122 124.707 327.153 124.281 328.943 123.429C330.761 122.548 332.281 121.284 333.502 119.636C334.724 117.989 335.562 115.986 336.016 113.628H350.761C350.391 118.259 349.028 122.364 346.67 125.943C344.312 129.494 341.102 132.278 337.039 134.295C332.977 136.284 328.204 137.278 322.721 137.278ZM388.805 137.278C382.242 137.278 376.575 135.915 371.802 133.188C367.058 130.432 363.407 126.54 360.85 121.511C358.294 116.455 357.015 110.503 357.015 103.656C357.015 96.9233 358.294 91.0142 360.85 85.929C363.436 80.8153 367.044 76.8381 371.674 73.9972C376.305 71.1278 381.745 69.6932 387.995 69.6932C392.029 69.6932 395.836 70.3466 399.416 71.6534C403.024 72.9318 406.206 74.9205 408.961 77.6193C411.745 80.3182 413.933 83.7557 415.524 87.9318C417.115 92.0795 417.91 97.0227 417.91 102.761V107.491H364.26V97.0938H403.123C403.095 94.1392 402.456 91.5114 401.206 89.2102C399.956 86.8807 398.208 85.0483 395.964 83.7131C393.748 82.3778 391.163 81.7102 388.208 81.7102C385.055 81.7102 382.285 82.4773 379.899 84.0114C377.512 85.517 375.652 87.5057 374.316 89.9773C373.01 92.4205 372.342 95.1051 372.313 98.0312V107.108C372.313 110.915 373.01 114.182 374.402 116.909C375.794 119.608 377.74 121.682 380.24 123.131C382.74 124.551 385.666 125.261 389.018 125.261C391.262 125.261 393.294 124.949 395.112 124.324C396.93 123.67 398.507 122.719 399.842 121.469C401.177 120.219 402.186 118.67 402.867 116.824L417.271 118.443C416.362 122.25 414.629 125.574 412.072 128.415C409.544 131.227 406.305 133.415 402.356 134.977C398.407 136.511 393.89 137.278 388.805 137.278ZM442.787 48.7273V136H427.361V48.7273H442.787ZM496.768 108.472V70.5455H512.194V136H497.237V124.366H496.555C495.078 128.031 492.649 131.028 489.268 133.358C485.916 135.687 481.783 136.852 476.868 136.852C472.578 136.852 468.785 135.901 465.49 133.997C462.223 132.065 459.666 129.267 457.819 125.602C455.973 121.909 455.05 117.449 455.05 112.222V70.5455H470.476V109.835C470.476 113.983 471.612 117.278 473.885 119.722C476.158 122.165 479.14 123.386 482.834 123.386C485.106 123.386 487.308 122.832 489.439 121.724C491.569 120.616 493.317 118.969 494.68 116.781C496.072 114.565 496.768 111.795 496.768 108.472ZM553.009 137.278C546.474 137.278 540.864 135.844 536.176 132.974C531.517 130.105 527.923 126.142 525.395 121.085C522.895 116 521.645 110.148 521.645 103.528C521.645 96.8807 522.923 91.0142 525.48 85.929C528.037 80.8153 531.645 76.8381 536.304 73.9972C540.991 71.1278 546.531 69.6932 552.923 69.6932C558.236 69.6932 562.938 70.6733 567.028 72.6335C571.148 74.5653 574.429 77.3068 576.872 80.858C579.315 84.3807 580.707 88.5 581.048 93.2159H566.304C565.707 90.0625 564.287 87.4347 562.043 85.3324C559.827 83.2017 556.858 82.1364 553.136 82.1364C549.983 82.1364 547.213 82.9886 544.827 84.6932C542.44 86.3693 540.58 88.7841 539.244 91.9375C537.938 95.0909 537.284 98.8693 537.284 103.273C537.284 107.733 537.938 111.568 539.244 114.778C540.551 117.96 542.384 120.418 544.741 122.151C547.128 123.855 549.926 124.707 553.136 124.707C555.409 124.707 557.44 124.281 559.23 123.429C561.048 122.548 562.568 121.284 563.79 119.636C565.011 117.989 565.849 115.986 566.304 113.628H581.048C580.679 118.259 579.315 122.364 576.957 125.943C574.599 129.494 571.389 132.278 567.327 134.295C563.264 136.284 558.491 137.278 553.009 137.278ZM590.115 136V70.5455H605.541V136H590.115ZM597.871 61.2557C595.428 61.2557 593.325 60.446 591.564 58.8267C589.803 57.179 588.922 55.2045 588.922 52.9034C588.922 50.5739 589.803 48.5994 591.564 46.9801C593.325 45.3324 595.428 44.5085 597.871 44.5085C600.342 44.5085 602.445 45.3324 604.178 46.9801C605.939 48.5994 606.82 50.5739 606.82 52.9034C606.82 55.2045 605.939 57.179 604.178 58.8267C602.445 60.446 600.342 61.2557 597.871 61.2557ZM642.094 137.151C636.952 137.151 632.35 135.83 628.287 133.188C624.225 130.545 621.014 126.71 618.657 121.682C616.299 116.653 615.12 110.545 615.12 103.358C615.12 96.0852 616.313 89.9489 618.699 84.9489C621.114 79.9205 624.367 76.1278 628.458 73.571C632.549 70.9858 637.108 69.6932 642.137 69.6932C645.972 69.6932 649.125 70.3466 651.597 71.6534C654.068 72.9318 656.029 74.4801 657.478 76.2983C658.926 78.0881 660.049 79.7784 660.844 81.3693H661.483V48.7273H676.952V136H661.782V125.688H660.844C660.049 127.278 658.898 128.969 657.392 130.759C655.887 132.52 653.898 134.026 651.426 135.276C648.955 136.526 645.844 137.151 642.094 137.151ZM646.398 124.494C649.665 124.494 652.449 123.614 654.75 121.852C657.051 120.062 658.799 117.577 659.992 114.395C661.185 111.213 661.782 107.506 661.782 103.273C661.782 99.0398 661.185 95.3608 659.992 92.2358C658.827 89.1108 657.094 86.6818 654.793 84.9489C652.52 83.2159 649.722 82.3494 646.398 82.3494C642.961 82.3494 640.091 83.2443 637.79 85.0341C635.489 86.8239 633.756 89.2955 632.591 92.4489C631.426 95.6023 630.844 99.2102 630.844 103.273C630.844 107.364 631.426 111.014 632.591 114.224C633.784 117.406 635.532 119.92 637.833 121.767C640.162 123.585 643.017 124.494 646.398 124.494Z" fill="#FF2800"/>
</svg>
