<svg width="184" height="187" viewBox="0 0 184 187" fill="none" xmlns="http://www.w3.org/2000/svg">
<path d="M22 5H162C171.389 5 179 12.6112 179 22V165C179 174.389 171.389 182 162 182H22C12.6112 182 5 174.389 5 165V22C5 12.6112 12.6112 5 22 5Z" stroke="#FF2800" stroke-width="10"/>
<path d="M35.8153 137H18.9403L49.6648 49.7273H69.1818L99.9489 137H83.0739L59.7642 67.625H59.0824L35.8153 137ZM36.3693 102.781H82.392V115.48H36.3693V102.781ZM111.444 137V49.7273H127.254V123.747H165.691V137H111.444Z" fill="#FF2800"/>
</svg>
